<?xml version="1.0" encoding="utf-8"?>
<!-- Generator: Adobe Illustrator 18.0.0, SVG Export Plug-In . SVG Version: 6.00 Build 0)  -->
<!DOCTYPE svg PUBLIC "-//W3C//DTD SVG 1.1//EN" "http://www.w3.org/Graphics/SVG/1.1/DTD/svg11.dtd">
<svg version="1.1" id="Layer_1" xmlns="http://www.w3.org/2000/svg" xmlns:xlink="http://www.w3.org/1999/xlink" x="0px" y="0px"
	 viewBox="0 0 300 65" enable-background="new 0 0 300 65" xml:space="preserve">
<g>
	<g>
		<path fill="#010101" d="M85.1,36.8v10.1h-4.9V36.8L69.7,21.9H76l6.7,9.9l6.9-9.9h6L85.1,36.8z"/>
		<path fill="#010101" d="M106.1,46.9v-25h4.9v25H106.1z"/>
		<path fill="#010101" d="M149.7,46.9V31L141,43.6L132.1,31v15.9h-5v-25h5l8.8,12.6l8.7-12.6h5v25H149.7z"/>
		<path fill="#010101" d="M186.5,46.9h-16.3v-25h16.3c2.2,0,4,0.1,5.6,1.7c1.4,1.3,2,3.2,2,5c0,2.1-0.3,3-1.7,4.6
			c2,1.6,2.9,3.2,2.9,5.8C195.4,44.4,191.5,46.9,186.5,46.9z M186.5,26.9h-11.4v4.3h11.4c1.7,0,2.5-0.3,2.5-2.2
			C189,27.3,188,26.9,186.5,26.9z M186.5,36.2h-11.4v5.7h11.4c2,0,3.9-0.5,3.9-2.9C190.4,36.6,188.5,36.2,186.5,36.2z"/>
		<path fill="#010101" d="M219.2,36.8v10.1h-4.9V36.8l-10.5-14.9h6.3l6.7,9.9l6.9-9.9h6L219.2,36.8z"/>
	</g>
	<g>
		<path fill="#010101" d="M114,13.6l-5-5.9v5.9h-1.4v-8h1.4l5,5.9V5.6h1.4v8H114z"/>
		<path fill="#010101" d="M120.8,13.6v-8h7V7h-5.7v1.8h3.1v1.4h-3.1v2.1h5.8v1.4H120.8z"/>
		<path fill="#010101" d="M139.3,13.6H138l-1.9-5.7l-2,5.7h-1.3l-2.8-8h1.4l2,5.8l2-5.8h1.4l1.9,5.8l2.1-5.8h1.4L139.3,13.6z"/>
		<path fill="#010101" d="M154.8,10v3.6h-1.4V10L150,5.6h1.7l2.4,3.1l2.4-3.1h1.7L154.8,10z"/>
		<path fill="#010101" d="M165.7,13.9c-2.5,0-4.8-1.5-4.8-4.2V9.5c0-2.7,2.5-4.1,4.9-4.1c2.5,0,4.8,1.5,4.8,4.2
			C170.6,12.3,168.2,13.9,165.7,13.9z M165.8,6.8c-1.7,0-3.5,0.9-3.5,2.9c0,1.9,1.7,2.8,3.4,2.8c1.7,0,3.6-0.9,3.6-2.9
			S167.5,6.8,165.8,6.8z"/>
		<path fill="#010101" d="M181.6,13.6l-2.3-3.3h-2.8v3.3h-1.4v-8h4.9c1.6,0,3,0.5,3,2.4c0,1.4-0.8,2.2-2.1,2.3l2.3,3.3H181.6z
			 M180.1,7h-3.6v2h3.7c0.8,0,1.5-0.2,1.5-1.1C181.7,7.2,181.4,7,180.1,7z"/>
		<path fill="#010101" d="M193,13.6l-3-4.2l-1.5,1.3v2.8h-1.4v-8h1.4v3.5l3.9-3.5h1.7l-3.1,2.9l3.6,5H193z"/>
	</g>
</g>
<g>
	<path d="M24.3,59.7c0.5,0.3,1.2,0.5,1.9,0.5c1.1,0,1.7-0.6,1.7-1.4c0-0.8-0.4-1.2-1.5-1.6c-1.3-0.5-2.1-1.2-2.1-2.3
		c0-1.3,1-2.2,2.6-2.2c0.8,0,1.4,0.2,1.8,0.4L28.3,54c-0.3-0.1-0.8-0.4-1.5-0.4c-1.1,0-1.5,0.7-1.5,1.2c0,0.8,0.5,1.1,1.6,1.6
		c1.4,0.5,2.1,1.2,2.1,2.4c0,1.2-0.9,2.3-2.8,2.3c-0.8,0-1.6-0.2-2.1-0.5L24.3,59.7z"/>
	<path d="M33.6,61l-0.1-0.7h0c-0.3,0.5-0.9,0.9-1.8,0.9c-1.2,0-1.8-0.8-1.8-1.7c0-1.4,1.2-2.2,3.5-2.2v-0.1c0-0.5-0.1-1.3-1.3-1.3
		c-0.5,0-1.1,0.2-1.5,0.4l-0.2-0.7c0.5-0.3,1.2-0.5,1.9-0.5c1.8,0,2.2,1.2,2.2,2.4v2.2c0,0.5,0,1,0.1,1.4H33.6z M33.4,58
		c-1.2,0-2.5,0.2-2.5,1.3c0,0.7,0.5,1,1,1c0.8,0,1.2-0.5,1.4-1c0-0.1,0.1-0.2,0.1-0.3V58z"/>
	<path d="M36.4,55.2l1.3,3.4c0.1,0.4,0.3,0.8,0.4,1.2h0c0.1-0.3,0.2-0.8,0.4-1.2l1.2-3.4h1.1l-1.6,4.1c-0.8,2-1.3,3-2,3.6
		c-0.5,0.5-1,0.6-1.3,0.7l-0.3-0.9c0.3-0.1,0.6-0.3,0.9-0.5c0.3-0.2,0.6-0.6,0.9-1.2c0-0.1,0.1-0.2,0.1-0.3c0-0.1,0-0.1-0.1-0.3
		l-2.1-5.3H36.4z"/>
	<path d="M42.9,53.6c0,0.4-0.3,0.6-0.7,0.6c-0.4,0-0.6-0.3-0.6-0.6c0-0.4,0.3-0.7,0.7-0.7C42.6,52.9,42.9,53.2,42.9,53.6z M41.7,61
		v-5.8h1.1V61H41.7z"/>
	<path d="M44.5,56.8c0-0.6,0-1.1,0-1.6h0.9l0.1,1h0c0.3-0.6,1-1.1,1.9-1.1c0.8,0,2.1,0.5,2.1,2.5V61h-1.1v-3.3
		c0-0.9-0.3-1.7-1.3-1.7c-0.7,0-1.2,0.5-1.4,1.1c0,0.1-0.1,0.3-0.1,0.5V61h-1.1V56.8z"/>
	<path d="M56.2,55.2c0,0.4,0,0.9,0,1.6v3.4c0,1.3-0.3,2.1-0.8,2.7c-0.6,0.5-1.4,0.7-2.1,0.7c-0.7,0-1.5-0.2-1.9-0.5l0.3-0.8
		c0.4,0.2,1,0.5,1.7,0.5c1.1,0,1.9-0.6,1.9-2V60h0c-0.3,0.5-0.9,1-1.8,1c-1.4,0-2.5-1.2-2.5-2.8c0-2,1.3-3.1,2.6-3.1
		c1,0,1.6,0.5,1.8,1h0l0-0.9H56.2z M55.1,57.5c0-0.2,0-0.3-0.1-0.5c-0.2-0.6-0.7-1.1-1.5-1.1c-1,0-1.7,0.9-1.7,2.2
		c0,1.1,0.6,2.1,1.7,2.1c0.6,0,1.2-0.4,1.5-1.1c0.1-0.2,0.1-0.4,0.1-0.6V57.5z"/>
	<path d="M58.9,55.7c0.3-1,0.8-2.3,1.1-2.9l0.7-0.1c-0.3,0.7-0.6,1.9-0.7,2.8L58.9,55.7z M60.7,55.7c0.3-1,0.8-2.3,1.1-2.9l0.7-0.1
		c-0.3,0.7-0.6,1.9-0.7,2.8L60.7,55.7z"/>
	<path d="M65.5,61v-3.4l-2.6-4.7h1.7l1,2.1c0.3,0.6,0.5,1.1,0.7,1.6h0c0.2-0.5,0.4-1,0.7-1.6l1-2.1h1.7L67,57.6V61H65.5z"/>
	<path d="M71.2,58.3c0,1.4,0.9,2,2,2c0.8,0,1.2-0.1,1.6-0.3l0.2,0.8c-0.4,0.2-1,0.4-1.9,0.4c-1.8,0-2.9-1.2-2.9-2.9s1-3.1,2.7-3.1
		c1.9,0,2.4,1.7,2.4,2.7c0,0.2,0,0.4,0,0.5H71.2z M74.2,57.5c0-0.7-0.3-1.7-1.5-1.7c-1.1,0-1.5,1-1.6,1.7H74.2z"/>
	<path d="M76.4,59.9c0.3,0.2,0.9,0.4,1.4,0.4c0.8,0,1.1-0.4,1.1-0.9c0-0.5-0.3-0.8-1.1-1.1c-1-0.4-1.5-0.9-1.5-1.6
		c0-0.9,0.8-1.7,2-1.7c0.6,0,1.1,0.2,1.4,0.4l-0.3,0.8c-0.2-0.1-0.6-0.3-1.2-0.3c-0.6,0-1,0.4-1,0.8c0,0.5,0.3,0.7,1.1,1
		c1,0.4,1.5,0.9,1.5,1.8c0,1-0.8,1.7-2.2,1.7c-0.6,0-1.2-0.2-1.6-0.4L76.4,59.9z"/>
	<path d="M85.3,52.9V61h-1.5v-8.1H85.3z"/>
	<path d="M87,56.8c0-0.6,0-1.1,0-1.6h0.9l0.1,1h0c0.3-0.6,1-1.1,1.9-1.1c0.8,0,2.1,0.5,2.1,2.5V61h-1.1v-3.3c0-0.9-0.3-1.7-1.3-1.7
		c-0.7,0-1.2,0.5-1.4,1.1c0,0.1-0.1,0.3-0.1,0.5V61H87V56.8z"/>
	<path d="M103,57.7c0-1-0.1-2.3-0.1-3.4h0c-0.3,1-0.6,2.1-1,3.1l-1.2,3.5h-1.1l-1.1-3.5c-0.3-1-0.6-2.1-0.8-3.1h0
		c0,1.1-0.1,2.3-0.1,3.4L97.4,61H96l0.5-8.1h1.9l1.1,3.3c0.3,0.9,0.5,1.9,0.7,2.8h0c0.2-0.9,0.5-1.9,0.8-2.8l1.1-3.2h1.9l0.5,8.1
		h-1.4L103,57.7z"/>
	<path d="M106.6,55.2l1.3,3.4c0.1,0.4,0.3,0.8,0.4,1.2h0c0.1-0.3,0.2-0.8,0.4-1.2l1.2-3.4h1.1l-1.6,4.1c-0.8,2-1.3,3-2,3.6
		c-0.5,0.5-1,0.6-1.3,0.7l-0.3-0.9c0.3-0.1,0.6-0.3,0.9-0.5c0.3-0.2,0.6-0.6,0.9-1.2c0-0.1,0.1-0.2,0.1-0.3c0-0.1,0-0.1-0.1-0.3
		l-2.1-5.3H106.6z"/>
	<path d="M114.3,53c0.5-0.1,1.3-0.2,2.1-0.2c1.1,0,1.8,0.1,2.3,0.5c0.5,0.3,0.8,0.8,0.8,1.5c0,0.7-0.5,1.4-1.3,1.8v0
		c0.9,0.2,1.6,0.9,1.6,2c0,0.7-0.3,1.3-0.8,1.7c-0.6,0.5-1.5,0.8-3,0.8c-0.8,0-1.4-0.1-1.8-0.1V53z M115.8,56.2h0.8
		c1,0,1.6-0.5,1.6-1.2c0-0.8-0.6-1.1-1.5-1.1c-0.4,0-0.7,0-0.8,0.1V56.2z M115.8,59.9c0.2,0,0.4,0,0.8,0c0.9,0,1.8-0.4,1.8-1.4
		c0-0.9-0.8-1.3-1.8-1.3h-0.7V59.9z"/>
	<path d="M124.5,61l-0.1-0.7h0c-0.3,0.5-0.9,0.9-1.8,0.9c-1.2,0-1.8-0.8-1.8-1.7c0-1.4,1.2-2.2,3.5-2.2v-0.1c0-0.5-0.1-1.3-1.3-1.3
		c-0.5,0-1.1,0.2-1.5,0.4l-0.2-0.7c0.5-0.3,1.2-0.5,1.9-0.5c1.8,0,2.2,1.2,2.2,2.4v2.2c0,0.5,0,1,0.1,1.4H124.5z M124.3,58
		c-1.2,0-2.5,0.2-2.5,1.3c0,0.7,0.5,1,1,1c0.8,0,1.2-0.5,1.4-1c0-0.1,0.1-0.2,0.1-0.3V58z"/>
	<path d="M131.2,60.8c-0.3,0.1-0.9,0.3-1.7,0.3c-1.8,0-2.9-1.2-2.9-3c0-1.8,1.2-3.1,3.1-3.1c0.6,0,1.2,0.2,1.5,0.3l-0.2,0.8
		c-0.3-0.1-0.6-0.3-1.2-0.3c-1.3,0-2.1,1-2.1,2.2c0,1.3,0.9,2.2,2,2.2c0.6,0,1-0.2,1.3-0.3L131.2,60.8z"/>
	<path d="M133.5,57.9L133.5,57.9c0.2-0.2,0.4-0.5,0.5-0.7l1.7-2h1.3l-2.2,2.4l2.6,3.4H136l-2-2.8l-0.5,0.6V61h-1v-8.5h1V57.9z"/>
	<path d="M142.4,61v-3.4l-2.6-4.7h1.7l1,2.1c0.3,0.6,0.5,1.1,0.7,1.6h0c0.2-0.5,0.4-1,0.7-1.6l1-2.1h1.7l-2.7,4.7V61H142.4z"/>
	<path d="M150.7,61l-0.1-0.7h0c-0.3,0.5-0.9,0.9-1.8,0.9c-1.2,0-1.8-0.8-1.8-1.7c0-1.4,1.2-2.2,3.5-2.2v-0.1c0-0.5-0.1-1.3-1.3-1.3
		c-0.5,0-1.1,0.2-1.5,0.4l-0.2-0.7c0.5-0.3,1.2-0.5,1.9-0.5c1.8,0,2.2,1.2,2.2,2.4v2.2c0,0.5,0,1,0.1,1.4H150.7z M150.6,58
		c-1.2,0-2.5,0.2-2.5,1.3c0,0.7,0.5,1,1,1c0.8,0,1.2-0.5,1.4-1c0-0.1,0.1-0.2,0.1-0.3V58z"/>
	<path d="M153.3,57c0-0.7,0-1.3,0-1.8h0.9l0,1.1h0c0.3-0.8,0.9-1.3,1.6-1.3c0.1,0,0.2,0,0.3,0v1c-0.1,0-0.2,0-0.4,0
		c-0.7,0-1.3,0.6-1.4,1.4c0,0.1,0,0.3,0,0.5V61h-1V57z"/>
	<path d="M162.1,52.5v7c0,0.5,0,1.1,0,1.5h-0.9l0-1h0c-0.3,0.6-1,1.1-2,1.1c-1.4,0-2.5-1.2-2.5-3c0-1.9,1.2-3.1,2.6-3.1
		c0.9,0,1.5,0.4,1.8,0.9h0v-3.5H162.1z M161.1,57.6c0-0.1,0-0.3,0-0.4c-0.2-0.7-0.7-1.2-1.5-1.2c-1.1,0-1.7,1-1.7,2.2
		c0,1.2,0.6,2.1,1.7,2.1c0.7,0,1.4-0.5,1.5-1.3c0-0.1,0-0.3,0-0.5V57.6z"/>
	<path d="M165.3,52.8c-0.3,1-0.8,2.3-1.1,2.8l-0.7,0.1c0.3-0.7,0.6-2,0.7-2.8L165.3,52.8z M167,52.8c-0.3,1-0.8,2.3-1.1,2.8
		l-0.7,0.1c0.3-0.7,0.6-2,0.7-2.8L167,52.8z"/>
	<path d="M171,53.5v1.7h1.5V56H171v3.1c0,0.7,0.2,1.1,0.8,1.1c0.3,0,0.5,0,0.6-0.1l0,0.8c-0.2,0.1-0.5,0.1-0.9,0.1
		c-0.5,0-0.9-0.2-1.1-0.4c-0.3-0.3-0.4-0.8-0.4-1.5V56H169v-0.8h0.9v-1.4L171,53.5z"/>
	<path d="M178.8,58c0,2.1-1.5,3.1-2.9,3.1c-1.6,0-2.8-1.2-2.8-3c0-1.9,1.3-3.1,2.9-3.1C177.7,55.1,178.8,56.3,178.8,58z M174.2,58.1
		c0,1.3,0.7,2.2,1.8,2.2c1,0,1.8-0.9,1.8-2.3c0-1-0.5-2.2-1.7-2.2C174.8,55.9,174.2,57,174.2,58.1z"/>
	<path d="M182.8,61v-8.1h1.1l2.6,4.1c0.6,0.9,1.1,1.8,1.5,2.6l0,0c-0.1-1.1-0.1-2.1-0.1-3.3v-3.4h1V61h-1.1l-2.6-4.1
		c-0.6-0.9-1.1-1.8-1.5-2.7l0,0c0.1,1,0.1,2,0.1,3.3V61H182.8z"/>
	<path d="M191.2,58.3c0,1.4,0.9,2,2,2c0.8,0,1.2-0.1,1.6-0.3l0.2,0.8c-0.4,0.2-1,0.4-1.9,0.4c-1.8,0-2.9-1.2-2.9-2.9s1-3.1,2.7-3.1
		c1.9,0,2.4,1.7,2.4,2.7c0,0.2,0,0.4,0,0.5H191.2z M194.3,57.5c0-0.7-0.3-1.7-1.5-1.7c-1.1,0-1.5,1-1.6,1.7H194.3z"/>
	<path d="M197.1,55.2l0.8,3c0.2,0.6,0.3,1.2,0.4,1.8h0c0.1-0.6,0.3-1.2,0.5-1.8l0.9-3h0.9l0.9,2.9c0.2,0.7,0.4,1.3,0.5,1.9h0
		c0.1-0.6,0.3-1.2,0.4-1.9l0.8-2.9h1l-1.9,5.8h-1l-0.9-2.8c-0.2-0.6-0.4-1.2-0.5-1.9h0c-0.1,0.7-0.3,1.3-0.5,1.9l-0.9,2.8h-1
		l-1.8-5.8H197.1z"/>
	<path d="M208,53c0.6-0.1,1.4-0.2,2.2-0.2c1.5,0,2.6,0.3,3.3,1c0.7,0.7,1.1,1.6,1.1,2.9c0,1.3-0.4,2.4-1.2,3.1
		c-0.8,0.8-2,1.2-3.6,1.2c-0.7,0-1.4,0-1.9-0.1V53z M209.1,60.2c0.3,0,0.6,0.1,1.1,0.1c2.2,0,3.4-1.2,3.4-3.4c0-1.9-1.1-3.1-3.3-3.1
		c-0.5,0-0.9,0-1.2,0.1V60.2z"/>
	<path d="M216.6,58.3c0,1.4,0.9,2,2,2c0.8,0,1.2-0.1,1.6-0.3l0.2,0.8c-0.4,0.2-1,0.4-1.9,0.4c-1.8,0-2.9-1.2-2.9-2.9s1-3.1,2.7-3.1
		c1.9,0,2.4,1.7,2.4,2.7c0,0.2,0,0.4,0,0.5H216.6z M219.7,57.5c0-0.7-0.3-1.7-1.5-1.7c-1.1,0-1.5,1-1.6,1.7H219.7z"/>
	<path d="M222.5,55.2l1.1,3.3c0.2,0.5,0.3,1,0.5,1.5h0c0.1-0.5,0.3-1,0.5-1.5l1.1-3.3h1.1l-2.3,5.8h-1l-2.2-5.8H222.5z"/>
	<path d="M228.3,58.3c0,1.4,0.9,2,2,2c0.8,0,1.2-0.1,1.6-0.3l0.2,0.8c-0.4,0.2-1,0.4-1.9,0.4c-1.8,0-2.9-1.2-2.9-2.9s1-3.1,2.7-3.1
		c1.9,0,2.4,1.7,2.4,2.7c0,0.2,0,0.4,0,0.5H228.3z M231.4,57.5c0-0.7-0.3-1.7-1.5-1.7c-1.1,0-1.5,1-1.6,1.7H231.4z"/>
	<path d="M233.7,52.5h1.1V61h-1.1V52.5z"/>
	<path d="M241.8,58c0,2.1-1.5,3.1-2.9,3.1c-1.6,0-2.8-1.2-2.8-3c0-1.9,1.3-3.1,2.9-3.1C240.7,55.1,241.8,56.3,241.8,58z M237.2,58.1
		c0,1.3,0.7,2.2,1.8,2.2c1,0,1.8-0.9,1.8-2.3c0-1-0.5-2.2-1.7-2.2C237.7,55.9,237.2,57,237.2,58.1z"/>
	<path d="M243.1,57.1c0-0.7,0-1.3,0-1.9h0.9l0,1h0c0.4-0.7,1.1-1.1,2.1-1.1c1.4,0,2.5,1.2,2.5,3c0,2.1-1.3,3.1-2.6,3.1
		c-0.8,0-1.4-0.3-1.8-0.9h0v3.2h-1V57.1z M244.2,58.6c0,0.2,0,0.3,0,0.4c0.2,0.7,0.8,1.2,1.6,1.2c1.1,0,1.8-0.9,1.8-2.2
		c0-1.2-0.6-2.2-1.7-2.2c-0.7,0-1.4,0.5-1.6,1.3c0,0.1-0.1,0.3-0.1,0.4V58.6z"/>
	<path d="M250,56.8c0-0.6,0-1.1,0-1.6h0.9l0,0.9h0c0.3-0.6,0.9-1.1,1.8-1.1c0.8,0,1.4,0.5,1.6,1.2h0c0.2-0.3,0.4-0.6,0.6-0.8
		c0.3-0.3,0.7-0.4,1.3-0.4c0.8,0,1.9,0.5,1.9,2.5V61h-1v-3.3c0-1.1-0.4-1.8-1.3-1.8c-0.6,0-1.1,0.4-1.2,1c0,0.1-0.1,0.3-0.1,0.5V61
		h-1v-3.5c0-0.9-0.4-1.6-1.2-1.6c-0.7,0-1.1,0.5-1.3,1.1c-0.1,0.2-0.1,0.3-0.1,0.5V61h-1V56.8z"/>
	<path d="M260.6,58.3c0,1.4,0.9,2,2,2c0.8,0,1.2-0.1,1.6-0.3l0.2,0.8c-0.4,0.2-1,0.4-1.9,0.4c-1.8,0-2.9-1.2-2.9-2.9s1-3.1,2.7-3.1
		c1.9,0,2.4,1.7,2.4,2.7c0,0.2,0,0.4,0,0.5H260.6z M263.7,57.5c0-0.7-0.3-1.7-1.5-1.7c-1.1,0-1.5,1-1.6,1.7H263.7z"/>
	<path d="M266,56.8c0-0.6,0-1.1,0-1.6h0.9l0.1,1h0c0.3-0.6,1-1.1,1.9-1.1c0.8,0,2.1,0.5,2.1,2.5V61h-1.1v-3.3c0-0.9-0.3-1.7-1.3-1.7
		c-0.7,0-1.2,0.5-1.4,1.1c0,0.1-0.1,0.3-0.1,0.5V61H266V56.8z"/>
	<path d="M273.9,53.5v1.7h1.5V56h-1.5v3.1c0,0.7,0.2,1.1,0.8,1.1c0.3,0,0.5,0,0.6-0.1l0,0.8c-0.2,0.1-0.5,0.1-0.9,0.1
		c-0.5,0-0.9-0.2-1.1-0.4c-0.3-0.3-0.4-0.8-0.4-1.5V56h-0.9v-0.8h0.9v-1.4L273.9,53.5z"/>
</g>
<g>
</g>
<g>
</g>
<g>
</g>
<g>
</g>
<g>
</g>
<g>
</g>
</svg>
